<svg xmlns="http://www.w3.org/2000/svg" viewBox="0 8.84000015258789 127.16999816894531 37.029998779296875" data-asc="0.9052734375"><g fill="#000000"><g fill="#000000" transform="translate(0, 0)"><path d="M23.41 9.47L28.15 9.47L28.15 30.15Q28.15 35.55 26.93 38.72Q25.71 41.89 22.52 43.88Q19.34 45.87 14.16 45.87Q9.13 45.87 5.93 44.14Q2.73 42.41 1.37 39.12Q0 35.84 0 30.15L0 9.47L4.74 9.47L4.74 30.13Q4.74 34.79 5.60 37.00Q6.47 39.21 8.58 40.41Q10.69 41.60 13.75 41.60Q18.97 41.60 21.19 39.23Q23.41 36.87 23.41 30.13L23.41 9.47ZM36.28 45.26L36.28 9.47L60.42 9.47L60.42 13.70L41.02 13.70L41.02 24.78L57.81 24.78L57.81 29.00L41.02 29.00L41.02 45.26L36.28 45.26ZM66.38 45.26L66.38 9.47L71.12 9.47L71.12 41.04L88.75 41.04L88.75 45.26L66.38 45.26ZM92.94 27.83Q92.94 18.92 97.73 13.88Q102.51 8.84 110.08 8.84Q115.04 8.84 119.02 11.21Q123.00 13.57 125.09 17.81Q127.17 22.05 127.17 27.42Q127.17 32.86 124.98 37.16Q122.78 41.46 118.75 43.66Q114.72 45.87 110.06 45.87Q105.00 45.87 101.03 43.43Q97.05 40.99 95.00 36.77Q92.94 32.54 92.94 27.83M97.83 27.91Q97.83 34.38 101.31 38.10Q104.79 41.82 110.03 41.82Q115.38 41.82 118.84 38.06Q122.29 34.30 122.29 27.39Q122.29 23.02 120.81 19.76Q119.34 16.50 116.49 14.71Q113.65 12.92 110.11 12.92Q105.08 12.92 101.45 16.37Q97.83 19.82 97.83 27.91Z"/></g></g></svg>